<svg id="visual" viewBox="0 0 900 600" width="900" height="600" xmlns="http://www.w3.org/2000/svg" xmlns:xlink="http://www.w3.org/1999/xlink" version="1.1"><rect width="900" height="600" fill="#f5f5f5"></rect><g><g transform="translate(93 267)"><path d="M0 -71.4L45.9 -54.7L70.4 -12.4L61.9 35.7L24.4 67.1L-24.4 67.1L-61.9 35.7L-70.4 -12.4L-45.9 -54.7Z" fill="none" stroke="#f05454" stroke-width="3"></path></g><g transform="translate(726 270)"><path d="M0 -65L41.8 -49.8L64 -11.3L56.3 32.5L22.2 61.1L-22.2 61.1L-56.3 32.5L-64 -11.3L-41.8 -49.8Z" fill="none" stroke="#f05454" stroke-width="3"></path></g><g transform="translate(882 503)"><path d="M0 -54L34.7 -41.4L53.2 -9.4L46.8 27L18.5 50.7L-18.5 50.7L-46.8 27L-53.2 -9.4L-34.7 -41.4Z" stroke="#f05454" fill="none" stroke-width="3"></path></g><g transform="translate(663 432)"><path d="M0 -45L28.9 -34.5L44.3 -7.8L39 22.5L15.4 42.3L-15.4 42.3L-39 22.5L-44.3 -7.8L-28.9 -34.5Z" stroke="#f05454" fill="none" stroke-width="3"></path></g><g transform="translate(428 167)"><path d="M0 -28L18 -21.4L27.6 -4.9L24.2 14L9.6 26.3L-9.6 26.3L-24.2 14L-27.6 -4.9L-18 -21.4Z" stroke="#f05454" fill="none" stroke-width="3"></path></g><g transform="translate(385 422)"><path d="M0 -68L43.7 -52.1L67 -11.8L58.9 34L23.3 63.9L-23.3 63.9L-58.9 34L-67 -11.8L-43.7 -52.1Z" stroke="#f05454" fill="none" stroke-width="3"></path></g><g transform="translate(341 18)"><path d="M0 -45L28.9 -34.5L44.3 -7.8L39 22.5L15.4 42.3L-15.4 42.3L-39 22.5L-44.3 -7.8L-28.9 -34.5Z" stroke="#f05454" fill="none" stroke-width="3"></path></g><g transform="translate(757 74)"><path d="M0 -58L37.3 -44.4L57.1 -10.1L50.2 29L19.8 54.5L-19.8 54.5L-50.2 29L-57.1 -10.1L-37.3 -44.4Z" stroke="#f05454" fill="none" stroke-width="3"></path></g><g transform="translate(8 571)"><path d="M0 -43L27.6 -32.9L42.3 -7.5L37.2 21.5L14.7 40.4L-14.7 40.4L-37.2 21.5L-42.3 -7.5L-27.6 -32.9Z" stroke="#f05454" fill="none" stroke-width="3"></path></g><g transform="translate(227 479)"><path d="M0 -48L30.9 -36.8L47.3 -8.3L41.6 24L16.4 45.1L-16.4 45.1L-41.6 24L-47.3 -8.3L-30.9 -36.8Z" stroke="#f05454" fill="none" stroke-width="3"></path></g><g transform="translate(364 596)"><path d="M0 -40L25.7 -30.6L39.4 -6.9L34.6 20L13.7 37.6L-13.7 37.6L-34.6 20L-39.4 -6.9L-25.7 -30.6Z" stroke="#f05454" fill="none" stroke-width="3"></path></g><g transform="translate(120 119)"><path d="M0 -50L32.1 -38.3L49.2 -8.7L43.3 25L17.1 47L-17.1 47L-43.3 25L-49.2 -8.7L-32.1 -38.3Z" stroke="#f05454" fill="none" stroke-width="3"></path></g><g transform="translate(283 165)"><path d="M0 -65L41.8 -49.8L64 -11.3L56.3 32.5L22.2 61.1L-22.2 61.1L-56.3 32.5L-64 -11.3L-41.8 -49.8Z" stroke="#f05454" fill="none" stroke-width="3"></path></g><g transform="translate(578 121)"><path d="M0 -47L30.2 -36L46.3 -8.2L40.7 23.5L16.1 44.2L-16.1 44.2L-40.7 23.5L-46.3 -8.2L-30.2 -36Z" stroke="#f05454" fill="none" stroke-width="3"></path></g><g transform="translate(868 208)"><path d="M0 -54L34.7 -41.4L53.2 -9.4L46.8 27L18.5 50.7L-18.5 50.7L-46.8 27L-53.2 -9.4L-34.7 -41.4Z" stroke="#f05454" fill="none" stroke-width="3"></path></g><g transform="translate(524 581)"><path d="M0 -41L26.4 -31.4L40.4 -7.1L35.5 20.5L14 38.5L-14 38.5L-35.5 20.5L-40.4 -7.1L-26.4 -31.4Z" stroke="#f05454" fill="none" stroke-width="3"></path></g><g transform="translate(239 320)"><path d="M0 -29L18.6 -22.2L28.6 -5L25.1 14.5L9.9 27.3L-9.9 27.3L-25.1 14.5L-28.6 -5L-18.6 -22.2Z" stroke="#f05454" fill="none" stroke-width="3"></path></g></g></svg>